<svg width="142" height="48" viewBox="0 0 142 48" fill="none" xmlns="http://www.w3.org/2000/svg">
<path d="M35.1115 22.4765C31.1628 19.8196 26.0992 20.9016 23.4471 24.8953C21.2257 28.2331 17.8767 28.6467 16.5802 28.6467C12.357 28.6467 9.46413 25.7057 8.61105 22.6645C8.60261 22.6353 8.59416 22.6102 8.58994 22.5768C8.58149 22.5434 8.56882 22.5099 8.56037 22.4765C8.22252 21.2066 8.13806 20.6008 8.13806 19.2515C8.13806 11.9743 15.6849 3.87412 26.5553 3.87412C37.4258 3.87412 44.0604 12.2584 45.699 16.9163C45.6694 16.8369 45.6441 16.7533 45.6145 16.6698C42.4556 7.55449 33.7178 1 23.4344 1C10.4946 1 0 11.3811 0 24.1893C0 35.6356 8.34077 45.436 19.9165 45.436C29.1483 45.436 35.3564 40.3144 38.2028 33.2545C39.7612 29.3944 38.6589 24.8577 35.1072 22.4765" fill="#003963"/>
<path d="M45.8468 17.3632C44.4742 12.8181 38.0592 3.86987 26.5553 3.86987C15.6807 3.86987 8.13806 11.97 8.13806 19.2472C8.13806 20.5966 8.22252 21.2023 8.55616 22.4723C8.41679 21.9167 8.34077 21.3611 8.34077 20.818C8.34077 13.2358 16.0101 7.98471 23.8947 7.98471C34.5709 7.98471 43.2242 16.5444 43.2242 27.1051C43.2242 35.3807 38.4098 42.5451 31.412 45.9916C40.4327 42.7624 46.873 34.2194 46.873 24.185C46.873 21.808 46.5478 19.7151 45.8426 17.359" fill="#ED193A"/>
<path d="M57.9842 15.78V13.3946H71V15.78H65.4592L71.2281 22.7439L69.2727 24.3522L64.5935 18.5956L59.9944 24.7324L57.9589 23.1199L63.7319 15.78H57.9884H57.9842ZM76.0045 30.3887C76.0045 31.1448 75.8482 31.8508 75.5357 32.515C75.2232 33.1751 74.8009 33.7599 74.2772 34.2612C73.7535 34.7625 73.1285 35.1636 72.4106 35.456C71.6926 35.7484 70.924 35.8988 70.1089 35.8988C69.2939 35.8988 68.5506 35.7526 67.82 35.456C67.0936 35.1636 66.4643 34.7625 65.9364 34.2612C65.4128 33.7599 64.9947 33.1751 64.6779 32.515C64.3654 31.8508 64.2092 31.1448 64.2092 30.3887C64.2092 29.6326 64.3654 28.9266 64.6779 28.2665C64.9904 27.6023 65.4085 27.0216 65.9364 26.5162C66.4601 26.0149 67.0936 25.6138 67.82 25.3214C68.5506 25.029 69.315 24.8828 70.1089 24.8828C70.9029 24.8828 71.6884 25.029 72.4106 25.3214C73.1285 25.6138 73.7535 26.0149 74.2772 26.5162C74.8009 27.0216 75.2232 27.6023 75.5357 28.2665C75.8482 28.9307 76.0045 29.6367 76.0045 30.3887ZM73.2341 30.3636C73.2341 29.524 72.9216 28.8054 72.305 28.1997C71.6884 27.5981 70.9451 27.2932 70.0794 27.2932C69.2136 27.2932 68.5041 27.594 67.896 28.1997C67.2879 28.8054 66.9838 29.524 66.9838 30.3636C66.9838 31.2033 67.2879 31.9427 67.896 32.5401C68.5041 33.1333 69.2347 33.4341 70.0794 33.4341C70.924 33.4341 71.6842 33.1333 72.305 32.5401C72.9216 31.9427 73.2341 31.22 73.2341 30.3636ZM75.1134 24.6321V19.7779H70.8944V17.3633H75.1134V12.7388H77.9387V24.6321H75.1134Z" fill="#58595B"/>
<path d="M81.2834 26.9213H102.125V29.3861H93.1041V35.1677H90.283V29.3861H81.2834V26.9213ZM85.7262 15.9596H97.6482V13.1189H100.44V23.9052H82.9558V13.1189H85.722V15.9596H85.7262ZM97.6525 18.37H85.7304V21.4655H97.6525V18.37Z" fill="#58595B"/>
<path d="M118.105 24.6028C119.41 23.3245 120.221 21.5449 120.221 19.5856C120.221 15.6839 117.024 12.5215 113.08 12.5215C109.135 12.5215 105.938 15.6839 105.938 19.5856V20.1872H108.616V19.5856C108.616 17.146 110.613 15.17 113.08 15.17C115.546 15.17 117.544 17.146 117.544 19.5856C117.544 20.8096 117.041 21.9167 116.23 22.7146L105.943 32.6904V35.4894H120.225V33.0372H109.317L118.11 24.6028H118.105Z" fill="#003963"/>
<path d="M134.994 12.8306H130.319L120.217 25.9813V30.7186H131.125V26.9965H124.182L134.994 12.8306Z" fill="#003963"/>
<path d="M141.996 26.9966H134.914V30.7187H141.996V26.9966Z" fill="#ED193A"/>
<path d="M134.913 20.1414H131.125V26.9966H134.913V20.1414Z" fill="#F5821F"/>
<path d="M134.913 30.7188H131.125V37.6033H134.913V30.7188Z" fill="#0094D0"/>
<path d="M134.913 26.9966H131.125V30.7187H134.913V26.9966Z" fill="#003963"/>
</svg>
