<svg width="32" height="32" viewBox="0 0 32 32" fill="none" xmlns="http://www.w3.org/2000/svg">
<path d="M28.5695 18.6824V17.3764C28.5695 16.5772 27.9213 15.929 27.1221 15.929H25.8161C25.2833 15.929 24.8516 15.4973 24.8516 14.9645C24.8516 14.4317 25.2833 14 25.8161 14H27.1221C28.987 14 30.4997 15.5115 30.4997 17.3764V18.6824C30.4997 19.2152 30.0668 19.6481 29.534 19.6481C29.0014 19.6479 28.5695 19.2151 28.5695 18.6824Z" fill="#33363D"/>
<path d="M25.8176 28.0695L27.1236 28.0695C27.9228 28.0695 28.571 27.4213 28.571 26.6221L28.571 25.3161C28.571 24.7833 29.0027 24.3516 29.5355 24.3516C30.0683 24.3516 30.5 24.7833 30.5 25.3161L30.5 26.6221C30.5 28.487 28.9885 29.9997 27.1236 29.9997L25.8176 29.9997C25.2848 29.9997 24.8519 29.5668 24.8519 29.034C24.8521 28.5014 25.2849 28.0695 25.8176 28.0695Z" fill="#33363D"/>
<path d="M15.7235 18.6824V17.3764C15.7235 16.5772 16.3716 15.929 17.1709 15.929H18.4769C19.0097 15.929 19.4414 15.4973 19.4414 14.9645C19.4414 14.4317 19.0097 14 18.4769 14H17.1709C15.306 14 13.7933 15.5115 13.7933 17.3764V18.6824C13.7933 19.2152 14.2262 19.6481 14.759 19.6481C15.2916 19.6479 15.7235 19.2151 15.7235 18.6824Z" fill="#33363D"/>
<path d="M18.4754 28.0695L17.1694 28.0695C16.3701 28.0695 15.722 27.4213 15.722 26.6221L15.722 25.3161C15.722 24.7833 15.2903 24.3516 14.7575 24.3516C14.2247 24.3516 13.793 24.7833 13.793 25.3161L13.793 26.6221C13.793 28.487 15.3045 29.9997 17.1694 29.9997L18.4754 29.9997C19.0082 29.9997 19.4411 29.5668 19.4411 29.034C19.4409 28.5014 19.0081 28.0695 18.4754 28.0695Z" fill="#33363D"/>
<path d="M19.639 23.7865C19.2782 23.4183 18.6868 23.4127 18.3186 23.7734C17.9509 24.1341 17.9453 24.7244 18.3056 25.0924L19.639 23.7865ZM22.0166 26.6523C22.7074 26.6523 23.3913 26.5137 24.0283 26.2461C24.6653 25.9784 25.2426 25.586 25.7262 25.0924L25.8447 24.9453C26.08 24.5807 26.035 24.0891 25.7132 23.7734C25.345 23.4127 24.7536 23.4183 24.3929 23.7865C24.0831 24.1026 23.7137 24.3545 23.3056 24.526C22.8976 24.6975 22.4591 24.7851 22.0166 24.7852C21.5738 24.7852 21.1344 24.6976 20.7262 24.526C20.3182 24.3545 19.9487 24.1026 19.639 23.7865L18.3056 25.0924C18.7892 25.586 19.3665 25.9784 20.0035 26.2461C20.6407 26.5138 21.3255 26.6523 22.0166 26.6523Z" fill="#33363D"/>
<path d="M19.9413 19.5683C19.9413 20.141 19.477 20.6053 18.9042 20.6053C18.3315 20.6053 17.8672 20.141 17.8672 19.5683C17.8672 18.9955 18.3315 18.5312 18.9042 18.5312C19.477 18.5312 19.9413 18.9955 19.9413 19.5683Z" fill="#1D56BC"/>
<path d="M18.7981 20.6001C18.3101 20.5506 17.922 20.1624 17.8724 19.6744L17.8672 19.5676C17.8675 18.9954 18.3313 18.5316 18.9036 18.5312L19.0103 18.5365C19.533 18.5896 19.941 19.031 19.9413 19.5676L19.9361 19.6744C19.8829 20.1972 19.4404 20.6053 18.9036 20.6053L18.7981 20.6001Z" fill="#33363D"/>
<path d="M26.16 19.5683C26.16 20.141 25.6957 20.6053 25.123 20.6053C24.5502 20.6053 24.0859 20.141 24.0859 19.5683C24.0859 18.9955 24.5502 18.5312 25.123 18.5312C25.6957 18.5312 26.16 18.9955 26.16 19.5683Z" fill="#1D56BC"/>
<path d="M25.0169 20.6001C24.5289 20.5506 24.1408 20.1624 24.0911 19.6744L24.0859 19.5676C24.0863 18.9954 24.5501 18.5316 25.1223 18.5312L25.2291 18.5365C25.7517 18.5896 26.1597 19.031 26.16 19.5676L26.1548 19.6744C26.1016 20.1972 25.6592 20.6053 25.1223 20.6053L25.0169 20.6001Z" fill="#33363D"/>
<path d="M1.33203 14.7318C1.33203 7.33116 7.33116 1.33203 14.7318 1.33203C19.4331 1.33203 23.5683 3.75357 25.9583 7.41276L26.1914 7.78255C26.4179 8.1554 26.6263 8.54051 26.8164 8.9362L27.1133 9.60026L27.1497 9.70312C27.3052 10.2206 27.0474 10.7817 26.5378 10.9935C26.0275 11.2052 25.4466 10.9917 25.1901 10.5156L25.1432 10.418L24.8945 9.86068C24.7346 9.52766 24.558 9.20332 24.3672 8.88932L24.1719 8.57943C22.159 5.49784 18.6826 3.46484 14.7318 3.46484C8.50936 3.46484 3.46484 8.50936 3.46484 14.7318C3.46484 15.8526 3.62867 16.9336 3.93229 17.9531L4.07031 18.3854L4.10026 18.4909C4.22304 19.0174 3.92996 19.5618 3.40755 19.7409C2.88485 19.92 2.31827 19.67 2.09245 19.1784L2.05208 19.0781L1.88672 18.5612C1.52516 17.3468 1.33203 16.061 1.33203 14.7318Z" fill="#33363D"/>
<path d="M5.33203 14.7318C5.33203 9.5403 9.54029 5.33203 14.7318 5.33203C17.8238 5.33203 20.5668 6.82524 22.2786 9.1263L22.6068 9.59766L22.6615 9.69141C22.9101 10.1717 22.7594 10.7721 22.2969 11.0742C21.8347 11.3758 21.2253 11.2727 20.8854 10.8529L20.8203 10.7643L20.5664 10.3997C19.2405 8.61705 17.1205 7.46484 14.7318 7.46484C10.7185 7.46484 7.46485 10.7185 7.46484 14.7318L7.48047 15.3906C7.55915 16.9624 8.01198 19.5031 10.3854 23.5352L10.9687 24.4922L11.0221 24.5872C11.2619 25.0716 11.1001 25.6684 10.6328 25.9622C10.165 26.256 9.55621 26.1428 9.22396 25.7161L9.16146 25.6263L8.54167 24.6068C5.81435 19.9698 5.38149 17.0172 5.33594 15.1224L5.33203 14.7318Z" fill="#33363D"/>
<path d="M14.7328 9.33203C15.3217 9.33227 15.7992 9.80948 15.7992 10.3984C15.7992 10.9874 15.3217 11.4646 14.7328 11.4648C13.5966 11.4648 12.8843 11.9351 12.393 12.5677C11.9346 13.1581 11.6563 13.9146 11.5075 14.612L11.4516 14.9076C11.339 15.5834 11.3941 16.5897 11.7354 17.7682C11.8993 18.3341 11.5734 18.926 11.0075 19.0898C10.4419 19.2535 9.8512 18.9275 9.68723 18.362C9.28244 16.9643 9.16908 15.626 9.34739 14.556L9.4177 14.181C9.60941 13.2751 9.98993 12.1839 10.7081 11.2591C11.5618 10.1599 12.8725 9.33203 14.7328 9.33203Z" fill="#33363D"/>
</svg>
