<svg width="32" height="32" viewBox="0 0 32 32" fill="none" xmlns="http://www.w3.org/2000/svg">
<path d="M22.6003 13.5547V11.1107C22.6003 9.15181 22.2939 7.63049 21.4609 6.59635C20.668 5.61204 19.2063 4.84375 16.3333 4.84375C13.4603 4.84375 11.9986 5.61204 11.2057 6.59635C10.3728 7.63049 10.0664 9.15181 10.0664 11.1107V13.5547C10.0664 14.1438 9.5891 14.6224 9 14.6224C8.4109 14.6224 7.93359 14.1438 7.93359 13.5547V11.1107C7.93359 9.0241 8.23843 6.87894 9.54427 5.25781C10.8903 3.58685 13.0952 2.71094 16.3333 2.71094C19.5714 2.71094 21.7764 3.58685 23.1224 5.25781C24.4282 6.87894 24.7331 9.0241 24.7331 11.1107V13.5547C24.7331 14.1438 24.2558 14.6224 23.6667 14.6224C23.0776 14.6224 22.6003 14.1438 22.6003 13.5547Z" fill="#33363D"/>
<path d="M27.4909 19.6654C27.4908 17.2136 27.1582 16.1087 26.5807 15.5312C26.0032 14.9539 24.8984 14.6211 22.4466 14.6211H10.224C7.77219 14.6211 6.66727 14.9538 6.08984 15.5312C5.51242 16.1087 5.17973 17.2136 5.17969 19.6654V22.1107C5.17973 24.5624 5.51242 25.6674 6.08984 26.2448C6.66727 26.8222 7.77219 27.1549 10.224 27.1549H22.4466C24.8984 27.1549 26.0032 26.8221 26.5807 26.2448C27.1582 25.6674 27.4908 24.5624 27.4909 22.1107V19.6654ZM29.625 22.1107C29.625 24.5473 29.3456 26.4981 28.0898 27.7539C26.834 29.0096 24.8833 29.2878 22.4466 29.2878H10.224C7.78734 29.2877 5.83653 29.0097 4.58073 27.7539C3.32493 26.4981 3.04691 24.5473 3.04688 22.1107V19.6654C3.04691 17.2287 3.32493 15.2779 4.58073 14.0221C5.83653 12.7663 7.78734 12.4883 10.224 12.4883H22.4466C24.8833 12.4883 26.834 12.7664 28.0898 14.0221C29.3456 15.2779 29.625 17.2287 29.625 19.6654V22.1107Z" fill="#33363D"/>
<path d="M21.2318 19.5547L21.3672 19.5625C22.0396 19.6306 22.5649 20.1977 22.5651 20.888C22.5651 21.5785 22.0397 22.1467 21.3672 22.2148L21.2318 22.2214H21.2201C20.4838 22.2212 19.8867 21.6243 19.8867 20.888C19.887 20.1519 20.4839 19.5548 21.2201 19.5547H21.2318Z" fill="#33363D"/>
<path d="M16.3411 19.5547L16.4766 19.5625C17.1489 19.6306 17.6743 20.1977 17.6745 20.888C17.6745 21.5785 17.1491 22.1467 16.4766 22.2148L16.3411 22.2214H16.3294C15.5932 22.2212 14.9961 21.6243 14.9961 20.888C14.9963 20.1519 15.5933 19.5548 16.3294 19.5547H16.3411Z" fill="#33363D"/>
<path d="M11.4505 19.5547L11.5859 19.5625C12.2583 19.6306 12.7836 20.1977 12.7839 20.888C12.7839 21.5785 12.2585 22.1467 11.5859 22.2148L11.4505 22.2214H11.4388C10.7025 22.2212 10.1055 21.6243 10.1055 20.888C10.1057 20.1519 10.7027 19.5548 11.4388 19.5547H11.4505Z" fill="#33363D"/>
</svg>
