<svg width="18" height="21" viewBox="0 0 18 21" fill="none" xmlns="http://www.w3.org/2000/svg">
<g id="Group 1707484131">
<path id="Vector" d="M18 6.23463C18 6.93245 17.4528 7.49841 16.7762 7.49841H1.22183C0.547178 7.49841 0 6.93245 0 6.23463C0 5.77618 0.241229 5.35221 0.629549 5.12907L8.40575 0.658161C8.77446 0.445164 9.22358 0.445164 9.59425 0.658161L17.3705 5.12704C17.7588 5.35018 18 5.77415 18 6.2326V6.23463Z" fill="url(#paint0_linear_3526_1251)"/>
<path id="Vector_2" d="M16.7762 17.5H1.2238C0.547912 17.5 0 18.119 0 18.8826V19.1174C0 19.881 0.547912 20.5 1.2238 20.5H16.7762C17.4521 20.5 18 19.881 18 19.1174V18.8826C18 18.119 17.4521 17.5 16.7762 17.5Z" fill="url(#paint1_linear_3526_1251)"/>
<g id="Group 1707484132">
<path id="Vector_3" d="M2 15.5C1.448 15.5 1 15.0599 1 14.5177C1 12.9418 1 12.0582 1 10.4823C1 9.94008 1.448 9.5 2 9.5C2.552 9.5 3 9.94008 3 10.4823V14.5177C3 15.0599 2.552 15.5 2 15.5Z" fill="#A99DF4"/>
<path id="Vector_4" d="M5.5 15.5C4.948 15.5 4.5 15.0599 4.5 14.5177C4.5 12.9418 4.5 12.0582 4.5 10.4823C4.5 9.94008 4.948 9.5 5.5 9.5C6.052 9.5 6.5 9.94008 6.5 10.4823V14.5177C6.5 15.0599 6.052 15.5 5.5 15.5Z" fill="#A99DF4"/>
<path id="Vector_5" d="M9 15.5C8.448 15.5 8 15.0599 8 14.5177C8 12.9418 8 12.0582 8 10.4823C8 9.94008 8.448 9.5 9 9.5C9.552 9.5 10 9.94008 10 10.4823V14.5177C10 15.0599 9.552 15.5 9 15.5Z" fill="#A99DF4"/>
<path id="Vector_6" d="M12.5 15.5C11.948 15.5 11.5 15.0599 11.5 14.5177C11.5 12.9418 11.5 12.0582 11.5 10.4823C11.5 9.94008 11.948 9.5 12.5 9.5C13.052 9.5 13.5 9.94008 13.5 10.4823V14.5177C13.5 15.0599 13.052 15.5 12.5 15.5Z" fill="#A99DF4"/>
<path id="Vector_7" d="M16 15.5C15.448 15.5 15 15.0599 15 14.5177C15 12.9418 15 12.0582 15 10.4823C15 9.94008 15.448 9.5 16 9.5C16.552 9.5 17 9.94008 17 10.4823V14.5177C17 15.0599 16.552 15.5 16 15.5Z" fill="#A99DF4"/>
</g>
</g>
<defs>
<linearGradient id="paint0_linear_3526_1251" x1="6.37301" y1="2.97681" x2="8.99087" y2="9.71305" gradientUnits="userSpaceOnUse">
<stop stop-color="#AFA6FF"/>
<stop offset="1" stop-color="#8379F6"/>
</linearGradient>
<linearGradient id="paint1_linear_3526_1251" x1="6.37301" y1="18.5622" x2="6.91152" y2="21.7955" gradientUnits="userSpaceOnUse">
<stop stop-color="#A399FF"/>
<stop offset="1" stop-color="#7E73FF"/>
</linearGradient>
</defs>
</svg>
