<svg xmlns="http://www.w3.org/2000/svg" width="17" height="16" viewBox="0 0 17 16" fill="none">
<path fill-rule="evenodd" clip-rule="evenodd" d="M12.7738 2.82321C12.982 2.61493 13.3197 2.61492 13.528 2.82319C13.7363 3.03146 13.7363 3.36915 13.528 3.57744L9.10644 7.99931L13.5307 12.4238C13.7389 12.6321 13.7389 12.9698 13.5306 13.178C13.3223 13.3863 12.9847 13.3863 12.7764 13.178L8.35221 8.75358L3.92805 13.178C3.71977 13.3863 3.38209 13.3863 3.1738 13.178C2.96551 12.9698 2.9655 12.6321 3.17378 12.4238L7.59799 7.99931L3.17638 3.57744C2.96811 3.36915 2.96812 3.03146 3.1764 2.82319C3.38469 2.61492 3.72238 2.61493 3.93065 2.82321L8.35221 7.24504L12.7738 2.82321Z" fill="white"/>
</svg>