<?xml version="1.0" encoding="UTF-8"?>
<svg version="1.1" viewBox="0 0 1060 812" width="700" height="700" xmlns="http://www.w3.org/2000/svg">
<g transform="scale(3.4,3.4) translate(-320,-210)">
<g transform="scale(0.98,0.98) translate(8.8,8)">
<path transform="translate(423,202)" d="m0 0h11l14 3 14 7 9 8 4 5 3-1 7-8 10-7 11-5 10-2h11l10 2 9 5 7 8 4 9v16l-4 13-4 7h13l11 1 10 5 7 8 3 8 1 10v15l-2 15-6 9-3 3-1 5-1 64-2 18-4 12-6 9-7 7-14 7-10 2-11 1h-104l-15-2-11-4-9-6-7-7-7-14-2-9-1-9-1-24-1-49-8-11-2-5-1-6v-25l2-11 6-8 7-6 5-2 8-1h17l-7-14-2-10v-7l3-11 6-9 9-6 5-2z" fill="#292D32"/>
</g>
<path transform="translate(488,341)" d="m0 0h68l6 1v63l-2 15-4 10-8 7-8 3-16 2h-38l-1-1v-97z" fill="#FEFFFE"/>
<path transform="translate(391,341)" d="m0 0h73l2 1 1 78v21l-1 1h-40l-15-2-9-4-7-8-4-11-1-7-1-26v-41z" fill="#FEFFFE"/>
<path transform="translate(487,281)" d="m0 0h37l46 1 3 2 1 3v30l-4 4-2 1h-82l-1-2v-36z" fill="#FEFFFE"/>
<path transform="translate(382,282)" d="m0 0h84v40h-83l-5-5-1-6v-19l3-9z" fill="#FEFFFE"/>
<path transform="translate(427,221)" d="m0 0 11 1 12 5 7 6 6 9 3 9 1 10-1 1h-30l-10-4-7-7-5-10-1-9 3-6 5-4z" fill="#FEFFFE"/>
<path transform="translate(514,222)" d="m0 0h17l6 5 1 2v11l-4 9-7 8-8 4-4 1h-29l-1-1 1-11 4-10 8-10 10-6z" fill="#FEFFFE"/>
</g>
</svg>
