<svg width="20" height="20" viewBox="0 0 20 20" fill="none" xmlns="http://www.w3.org/2000/svg">
<path fill-rule="evenodd" clip-rule="evenodd" d="M17.443 7.77783H1V14.8892C1 16.853 2.59174 18.4449 4.55525 18.4449H13.8878C15.8513 18.4449 17.443 16.853 17.443 14.8892V7.77783Z" fill="url(#paint0_linear_7629_45932)"/>
<path d="M9.06452 11.1215C9.03544 10.7919 8.8125 10.5737 8.43932 10.5737C7.95468 10.5737 7.67843 10.947 7.67843 11.5723C7.67843 12.2315 7.95952 12.5709 8.43448 12.5709C8.78827 12.5709 9.01605 12.377 9.06452 12.0667L9.99989 12.0764C9.95143 12.6775 9.42316 13.3755 8.41509 13.3755C7.45064 13.3755 6.72852 12.7357 6.72852 11.5723C6.72852 10.4041 7.47003 9.76904 8.41509 9.76904C9.28746 9.76904 9.92235 10.2586 9.99989 11.1215H9.06452Z" fill="#65BBFE"/>
<path d="M3.59766 13.3274V9.81787H5.09037C5.8755 9.81787 6.38923 10.3123 6.38923 11.0491C6.38923 11.8005 5.86096 12.2707 5.06129 12.2707H4.51849V13.3274H3.59766ZM4.51849 11.5532H4.87713C5.22607 11.5532 5.42478 11.3594 5.42478 11.0491C5.42478 10.7437 5.22607 10.5547 4.87713 10.5547H4.51849V11.5532Z" fill="#65BBFE"/>
<path d="M4.55525 2C2.59174 2 1 3.59194 1 5.5557V6.88909H17.443V5.5557C17.443 3.59194 15.8513 2 13.8878 2H4.55525Z" fill="url(#paint1_linear_7629_45932)"/>
<path fill-rule="evenodd" clip-rule="evenodd" d="M3 4.66669C3 4.29849 3.29845 4 3.66661 4H6.33304C6.7012 4 6.99965 4.29849 6.99965 4.66669C6.99965 5.0349 6.7012 5.33339 6.33304 5.33339H3.66661C3.29845 5.33339 3 5.0349 3 4.66669Z" fill="white"/>
<path d="M19.222 7.78269C18.19 6.75142 17.1908 6.72686 16.1342 7.78269L15.4872 8.42928C15.4298 8.48657 15.4135 8.56842 15.4299 8.64208C15.8312 10.0498 16.9533 11.1711 18.362 11.5722C18.3784 11.5804 18.403 11.5804 18.4275 11.5804C18.4849 11.5804 18.5422 11.5558 18.5832 11.5149L19.222 10.8765C19.7462 10.3527 20.0001 9.85341 20.0001 9.34596C20.0001 8.81396 19.7462 8.30651 19.222 7.78269Z" fill="url(#paint2_linear_7629_45932)"/>
<path d="M18.1543 11.3128C17.9986 11.2391 17.8512 11.1655 17.712 11.0754C17.5973 11.01 17.4827 10.9363 17.3762 10.8544C17.2861 10.7972 17.1796 10.7153 17.0731 10.6253C17.0567 10.6171 17.024 10.5925 16.983 10.5434C16.811 10.3961 16.6145 10.1997 16.4343 9.99505C16.4179 9.98687 16.3933 9.94594 16.3605 9.89684C16.3032 9.83136 16.2213 9.72496 16.1394 9.61037C16.0739 9.52853 16.0002 9.41394 15.9347 9.29936C15.8527 9.16022 15.7708 9.01289 15.7053 8.86557C15.6316 8.70188 15.5743 8.55455 15.5169 8.40723L12.4291 11.4928C12.2244 11.6975 12.036 12.074 11.995 12.3522L11.7575 14.0547C11.7002 14.4148 11.8066 14.7503 12.0278 14.9795C12.2162 15.1678 12.4783 15.266 12.7649 15.266C12.8305 15.266 12.8878 15.2578 12.9533 15.2496L14.6569 15.0123C14.9354 14.9713 15.3122 14.7831 15.5169 14.5785L18.6048 11.4928C18.4573 11.4356 18.3099 11.3783 18.1543 11.3128Z" fill="#FFF0D2"/>
<path d="M17.4121 12.0467C17.2565 11.973 17.109 11.8993 16.9698 11.8093C16.8551 11.7438 16.7405 11.6702 16.634 11.5883C16.5439 11.531 16.4374 11.4492 16.3309 11.3592C16.3145 11.351 16.2818 11.3264 16.2408 11.2773C16.0688 11.13 15.8723 10.9336 15.6921 10.7289C15.6757 10.7208 15.6511 10.6798 15.6184 10.6307C15.561 10.5652 15.4791 10.4588 15.3972 10.3443C15.3317 10.2624 15.258 10.1478 15.1925 10.0332C15.1106 9.8941 15.0287 9.74678 14.9631 9.59946C14.8894 9.43576 14.8321 9.28844 14.7747 9.14111L11.6869 12.2267C11.4822 12.4314 11.2938 12.8078 11.2529 13.0861L11.0153 14.7885C10.958 15.1487 11.0645 15.4842 11.2856 15.7134C11.474 15.9017 11.7361 15.9999 12.0228 15.9999C12.0883 15.9999 12.1456 15.9917 12.2111 15.9835L13.9148 15.7461C14.1932 15.7052 14.57 15.517 14.7747 15.3124L17.8626 12.2267C17.7151 12.1694 17.5677 12.1121 17.4121 12.0467Z" fill="url(#paint3_linear_7629_45932)"/>
<defs>
<linearGradient id="paint0_linear_7629_45932" x1="9.22151" y1="6.47819" x2="9.22151" y2="18.4449" gradientUnits="userSpaceOnUse">
<stop stop-color="#DBF4FF"/>
<stop offset="1" stop-color="#A7E2FF"/>
</linearGradient>
<linearGradient id="paint1_linear_7629_45932" x1="1" y1="4.44454" x2="17.443" y2="4.44454" gradientUnits="userSpaceOnUse">
<stop stop-color="#99D3FF"/>
<stop offset="1" stop-color="#008CFF"/>
</linearGradient>
<linearGradient id="paint2_linear_7629_45932" x1="17.712" y1="7" x2="17.712" y2="11.5804" gradientUnits="userSpaceOnUse">
<stop stop-color="#F9B230"/>
<stop offset="1" stop-color="#FED789"/>
</linearGradient>
<linearGradient id="paint3_linear_7629_45932" x1="14.4313" y1="9.14111" x2="14.4313" y2="15.9999" gradientUnits="userSpaceOnUse">
<stop stop-color="#F9B230"/>
<stop offset="1" stop-color="#FED789"/>
</linearGradient>
</defs>
</svg>
