<svg width="20" height="21" viewBox="0 0 20 21" fill="none" xmlns="http://www.w3.org/2000/svg">
<path fill-rule="evenodd" clip-rule="evenodd" d="M2 7.12256C2 5.4657 3.34315 4.12256 5 4.12256H13C14.6569 4.12256 16 5.4657 16 7.12256V15.1226C16 16.7794 14.6569 18.1226 13 18.1226H5C3.34315 18.1226 2 16.7794 2 15.1226V7.12256ZM5 6.12256C4.44772 6.12256 4 6.57027 4 7.12256V15.1226C4 15.6748 4.44772 16.1226 5 16.1226H13C13.5523 16.1226 14 15.6748 14 15.1226V7.12256C14 6.57027 13.5523 6.12256 13 6.12256H5Z" fill="url(#paint0_linear_4277_12661)"/>
<rect x="11.0566" y="3.75708" width="5.42407" height="5.42407" fill="white"/>
<path fill-rule="evenodd" clip-rule="evenodd" d="M13 2.12256C12.4477 2.12256 12 2.57027 12 3.12256C12 3.67484 12.4477 4.12256 13 4.12256H14.5858L9.29289 9.41545C8.90237 9.80598 8.90237 10.4391 9.29289 10.8297C9.68342 11.2202 10.3166 11.2202 10.7071 10.8297L16 5.53677V7.12256C16 7.67484 16.4477 8.12256 17 8.12256C17.5523 8.12256 18 7.67484 18 7.12256V3.12256C18 2.57027 17.5523 2.12256 17 2.12256H13Z" fill="url(#paint1_linear_4277_12661)"/>
<defs>
<linearGradient id="paint0_linear_4277_12661" x1="5.07124" y1="6.43223" x2="13.0632" y2="15.9586" gradientUnits="userSpaceOnUse">
<stop stop-color="#BFB8FF"/>
<stop offset="1" stop-color="#9C94F8"/>
</linearGradient>
<linearGradient id="paint1_linear_4277_12661" x1="10.9744" y1="3.60735" x2="16.1121" y2="9.73146" gradientUnits="userSpaceOnUse">
<stop stop-color="#BFB8FF"/>
<stop offset="1" stop-color="#9C94F8"/>
</linearGradient>
</defs>
</svg>
