<svg width="20" height="20" viewBox="0 0 20 20" fill="none" xmlns="http://www.w3.org/2000/svg">
<g clip-path="url(#clip0_7638_163494)">
<path d="M4.66633 1C3.19415 1 2 2.34342 2 3.99962V16.0004C2 17.6566 3.19415 19 4.66633 19H15.3337C16.8059 19 18 17.6566 18 16.0004V7.94437L11.8292 1H4.66633Z" fill="url(#paint0_linear_7638_163494)"/>
<path d="M14.4946 7.95435H18L11.8291 1V4.95041C11.8291 6.609 13.0229 7.95435 14.4946 7.95435Z" fill="url(#paint1_linear_7638_163494)"/>
<path fill-rule="evenodd" clip-rule="evenodd" d="M4.00098 6V8.80308H4.50429V7.85452H5.04632C5.69289 7.85452 6.04134 7.46736 6.04134 6.9292C6.04134 6.39104 5.69676 6 5.05407 6H4.00098ZM4.97663 7.44026H4.50429V6.42201H4.97663C5.35606 6.42201 5.52641 6.62721 5.52641 6.9292C5.52641 7.22732 5.35606 7.44026 4.97663 7.44026ZM7.40037 8.80308H6.44794V6H7.41585C8.25213 6 8.75932 6.52655 8.75932 7.39767C8.75932 8.27266 8.25213 8.80308 7.40037 8.80308ZM6.95126 8.36558H7.37327C7.95789 8.36558 8.256 8.04424 8.256 7.39767C8.256 6.75497 7.95789 6.4375 7.38875 6.4375H6.95126V8.36558ZM9.20462 8.80308V6H11.0011V6.42201H9.70793V7.1886H10.8772V7.61061H9.70793V8.80308H9.20462Z" fill="white"/>
<path d="M4.00098 8.80308H3.92598V8.87808H4.00098V8.80308ZM4.00098 6V5.925H3.92598V6H4.00098ZM4.50429 8.80308V8.87808H4.57929V8.80308H4.50429ZM4.50429 7.85452V7.77952H4.42929V7.85452H4.50429ZM4.50429 7.44026H4.42929V7.51526H4.50429V7.44026ZM4.50429 6.42201V6.34701H4.42929V6.42201H4.50429ZM6.44794 8.80308H6.37294V8.87808H6.44794V8.80308ZM6.44794 6V5.925H6.37294V6H6.44794ZM6.95126 8.36558H6.87626V8.44058H6.95126V8.36558ZM6.95126 6.4375V6.3625H6.87626V6.4375H6.95126ZM9.20462 6V5.925H9.12962V6H9.20462ZM9.20462 8.80308H9.12962V8.87808H9.20462V8.80308ZM11.0011 6H11.0761V5.925H11.0011V6ZM11.0011 6.42201V6.49701H11.0761V6.42201H11.0011ZM9.70793 6.42201V6.34701H9.63294V6.42201H9.70793ZM9.70793 7.1886H9.63294V7.2636H9.70793V7.1886ZM10.8772 7.1886H10.9522V7.1136H10.8772V7.1886ZM10.8772 7.61061V7.68561H10.9522V7.61061H10.8772ZM9.70793 7.61061V7.53561H9.63294V7.61061H9.70793ZM9.70793 8.80308V8.87808H9.78293V8.80308H9.70793ZM4.07598 8.80308V6H3.92598V8.80308H4.07598ZM4.50429 8.72808H4.00098V8.87808H4.50429V8.72808ZM4.42929 7.85452V8.80308H4.57929V7.85452H4.42929ZM5.04632 7.77952H4.50429V7.92952H5.04632V7.77952ZM5.96634 6.9292C5.96634 7.18188 5.88486 7.39252 5.73388 7.54002C5.58288 7.68754 5.35452 7.77952 5.04632 7.77952V7.92952C5.38469 7.92952 5.65384 7.82792 5.83871 7.64732C6.02359 7.46669 6.11634 7.21467 6.11634 6.9292H5.96634ZM5.05407 6.075C5.35999 6.075 5.58629 6.16774 5.73591 6.31605C5.88565 6.46448 5.96634 6.67624 5.96634 6.9292H6.11634C6.11634 6.64399 6.02474 6.39115 5.84151 6.20952C5.65817 6.02778 5.39084 5.925 5.05407 5.925V6.075ZM4.00098 6.075H5.05407V5.925H4.00098V6.075ZM4.50429 7.51526H4.97663V7.36526H4.50429V7.51526ZM4.42929 6.42201V7.44026H4.57929V6.42201H4.42929ZM4.97663 6.34701H4.50429V6.49701H4.97663V6.34701ZM5.60141 6.9292C5.60141 6.76444 5.55472 6.61605 5.44655 6.50904C5.3384 6.40205 5.17947 6.34701 4.97663 6.34701V6.49701C5.15322 6.49701 5.26918 6.54457 5.34106 6.61568C5.41292 6.68677 5.45141 6.79196 5.45141 6.9292H5.60141ZM4.97663 7.51526C5.18023 7.51526 5.33911 7.45786 5.44698 7.34941C5.55464 7.24117 5.60141 7.09219 5.60141 6.9292H5.45141C5.45141 7.06432 5.413 7.17087 5.34063 7.24363C5.26846 7.31618 5.15246 7.36526 4.97663 7.36526V7.51526ZM6.44794 8.87808H7.40037V8.72808H6.44794V8.87808ZM6.37294 6V8.80308H6.52294V6H6.37294ZM7.41585 5.925H6.44794V6.075H7.41585V5.925ZM8.83432 7.39767C8.83432 6.94771 8.70312 6.5779 8.45525 6.32017C8.20703 6.06209 7.85006 5.925 7.41585 5.925V6.075C7.81792 6.075 8.13269 6.20118 8.34713 6.42415C8.56193 6.64748 8.68432 6.9765 8.68432 7.39767H8.83432ZM7.40037 8.87808C7.8421 8.87808 8.203 8.74015 8.45325 8.48055C8.70316 8.2213 8.83432 7.84948 8.83432 7.39767H8.68432C8.68432 7.82086 8.56188 8.15173 8.34526 8.37645C8.12898 8.6008 7.81039 8.72808 7.40037 8.72808V8.87808ZM7.37327 8.29058H6.95126V8.44058H7.37327V8.29058ZM8.181 7.39767C8.181 7.71082 8.10868 7.93136 7.97856 8.07343C7.84957 8.21427 7.6521 8.29058 7.37327 8.29058V8.44058C7.67905 8.44058 7.92295 8.35623 8.08917 8.17475C8.25427 7.9945 8.331 7.73108 8.331 7.39767H8.181ZM7.38875 6.5125C7.65954 6.5125 7.85321 6.58767 7.98039 6.72711C8.10873 6.86782 8.181 7.08656 8.181 7.39767H8.331C8.331 7.06608 8.25422 6.80473 8.09122 6.62603C7.92706 6.44606 7.6871 6.3625 7.38875 6.3625V6.5125ZM6.95126 6.5125H7.38875V6.3625H6.95126V6.5125ZM7.02626 8.36558V6.4375H6.87626V8.36558H7.02626ZM9.12962 6V8.80308H9.27962V6H9.12962ZM11.0011 5.925H9.20462V6.075H11.0011V5.925ZM11.0761 6.42201V6H10.9261V6.42201H11.0761ZM9.70793 6.49701H11.0011V6.34701H9.70793V6.49701ZM9.78293 7.1886V6.42201H9.63294V7.1886H9.78293ZM10.8772 7.1136H9.70793V7.2636H10.8772V7.1136ZM10.9522 7.61061V7.1886H10.8022V7.61061H10.9522ZM9.70793 7.68561H10.8772V7.53561H9.70793V7.68561ZM9.78293 8.80308V7.61061H9.63294V8.80308H9.78293ZM9.20462 8.87808H9.70793V8.72808H9.20462V8.87808Z" fill="white"/>
<path d="M12.4055 10H17.957C18.4322 10 18.8176 10.4336 18.8176 10.9682V12.4242H11.5449V10.9682C11.5449 10.4336 11.9303 10 12.4055 10Z" fill="url(#paint2_linear_7638_163494)"/>
<rect x="10.333" y="11.6655" width="9.69685" height="6.06053" rx="1.5" fill="url(#paint3_linear_7638_163494)"/>
<rect opacity="0.8" x="16.9995" y="13.2539" width="1.81816" height="0.606053" rx="0.303027" fill="white"/>
<path d="M11.5449 15.061H18.8176V19.2488C18.8176 19.6638 18.4322 20.0004 17.957 20.0004H12.4055C11.9303 20.0004 11.5449 19.6638 11.5449 19.2488V15.061Z" fill="url(#paint4_linear_7638_163494)"/>
</g>
<defs>
<linearGradient id="paint0_linear_7638_163494" x1="5.60769" y1="3.14272" x2="15.7757" y2="19.7391" gradientUnits="userSpaceOnUse">
<stop stop-color="#FFA67A"/>
<stop offset="1" stop-color="#F47243"/>
</linearGradient>
<linearGradient id="paint1_linear_7638_163494" x1="18" y1="1" x2="14.9146" y2="7.95435" gradientUnits="userSpaceOnUse">
<stop stop-color="#FF9966"/>
<stop offset="1" stop-color="#FFD1BA"/>
</linearGradient>
<linearGradient id="paint2_linear_7638_163494" x1="15.1812" y1="9" x2="15.1812" y2="11.4242" gradientUnits="userSpaceOnUse">
<stop stop-color="#B7E7FF"/>
<stop offset="1" stop-color="#DAF3FF"/>
</linearGradient>
<linearGradient id="paint3_linear_7638_163494" x1="10.333" y1="11.6655" x2="13.8353" y2="20.0631" gradientUnits="userSpaceOnUse">
<stop stop-color="#99D3FF"/>
<stop offset="1" stop-color="#008CFF"/>
</linearGradient>
<linearGradient id="paint4_linear_7638_163494" x1="15.1812" y1="14.2821" x2="15.1812" y2="19.9095" gradientUnits="userSpaceOnUse">
<stop stop-color="#DBF4FF"/>
<stop offset="1" stop-color="#A7E2FF"/>
</linearGradient>
<clipPath id="clip0_7638_163494">
<rect width="20" height="20" fill="white"/>
</clipPath>
</defs>
</svg>
