<svg width="24" height="24" viewBox="0 0 24 24" fill="none" xmlns="http://www.w3.org/2000/svg">
<path d="M17.2005 0H6.79852C4.82686 0 3.22852 1.59834 3.22852 3.57V20.43C3.22852 22.4017 4.82686 24 6.79852 24H17.2005C19.1722 24 20.7705 22.4017 20.7705 20.43V3.57C20.7705 1.59834 19.1722 0 17.2005 0Z" fill="#3D9FB8"/>
<path d="M17.2002 1.76172H6.79823C5.7997 1.76172 4.99023 2.57119 4.99023 3.56972V16.6877C4.99023 17.6863 5.7997 18.4957 6.79823 18.4957H17.2002C18.1988 18.4957 19.0082 17.6863 19.0082 16.6877V3.56972C19.0082 2.57119 18.1988 1.76172 17.2002 1.76172Z" fill="white"/>
<path d="M11.9984 21.948C12.606 21.948 13.0984 21.4556 13.0984 20.848C13.0984 20.2405 12.606 19.748 11.9984 19.748C11.3909 19.748 10.8984 20.2405 10.8984 20.848C10.8984 21.4556 11.3909 21.948 11.9984 21.948Z" fill="#ABD8E3"/>
<path d="M13.5823 9.33862C14.5352 8.38574 14.5352 6.84082 13.5823 5.88794C12.6294 4.93506 11.0845 4.93506 10.1316 5.88794C9.17871 6.84082 9.17871 8.38574 10.1316 9.33862C11.0845 10.2915 12.6294 10.2915 13.5823 9.33862Z" fill="#75C0D1"/>
<path d="M14.2099 15.3564H9.50186C8.81386 15.3564 8.25586 14.7984 8.25586 14.1104V13.1244C8.25586 11.1364 9.86786 9.52441 11.8559 9.52441C13.8439 9.52441 15.4559 11.1364 15.4559 13.1244V14.1104C15.4559 14.7984 14.8979 15.3564 14.2099 15.3564Z" fill="#75C0D1"/>
</svg>
