<svg width="32" height="32" viewBox="0 0 32 32" fill="none" xmlns="http://www.w3.org/2000/svg">
<path d="M7.20052 6.66667C7.20052 6.37211 6.96122 6.13281 6.66667 6.13281C6.37211 6.13281 6.13281 6.37211 6.13281 6.66667C6.13281 6.96122 6.37211 7.20052 6.66667 7.20052V9.33333C5.19391 9.33333 4 8.13943 4 6.66667C4 5.19391 5.19391 4 6.66667 4C8.13943 4 9.33333 5.19391 9.33333 6.66667C9.33333 8.13943 8.13943 9.33333 6.66667 9.33333V7.20052C6.96122 7.20052 7.20052 6.96122 7.20052 6.66667Z" fill="#33363D"/>
<path d="M16.5326 6.66667C16.5326 6.37211 16.2932 6.13281 15.9987 6.13281C15.7041 6.13281 15.4648 6.37211 15.4648 6.66667C15.4648 6.96122 15.7041 7.20052 15.9987 7.20052V9.33333C14.5259 9.33333 13.332 8.13943 13.332 6.66667C13.332 5.19391 14.5259 4 15.9987 4C17.4715 4 18.6654 5.19391 18.6654 6.66667C18.6654 8.13943 17.4715 9.33333 15.9987 9.33333V7.20052C16.2932 7.20052 16.5326 6.96122 16.5326 6.66667Z" fill="#33363D"/>
<path d="M25.8685 6.66667C25.8685 6.37211 25.6292 6.13281 25.3346 6.13281C25.0401 6.13281 24.8008 6.37211 24.8008 6.66667C24.8008 6.96122 25.0401 7.20052 25.3346 7.20052V9.33333C23.8619 9.33333 22.668 8.13943 22.668 6.66667C22.668 5.19391 23.8619 4 25.3346 4C26.8074 4 28.0013 5.19391 28.0013 6.66667C28.0013 8.13943 26.8074 9.33333 25.3346 9.33333V7.20052C25.6292 7.20052 25.8685 6.96122 25.8685 6.66667Z" fill="#33363D"/>
<path d="M7.20052 15.9987C7.20052 15.7041 6.96122 15.4648 6.66667 15.4648C6.37211 15.4648 6.13281 15.7041 6.13281 15.9987C6.13281 16.2932 6.37211 16.5326 6.66667 16.5326V18.6654C5.19391 18.6654 4 17.4715 4 15.9987C4 14.5259 5.19391 13.332 6.66667 13.332C8.13943 13.332 9.33333 14.5259 9.33333 15.9987C9.33333 17.4715 8.13943 18.6654 6.66667 18.6654V16.5326C6.96122 16.5326 7.20052 16.2932 7.20052 15.9987Z" fill="#33363D"/>
<path d="M16.5326 15.9987C16.5326 15.7041 16.2932 15.4648 15.9987 15.4648C15.7041 15.4648 15.4648 15.7041 15.4648 15.9987C15.4648 16.2932 15.7041 16.5326 15.9987 16.5326V18.6654C14.5259 18.6654 13.332 17.4715 13.332 15.9987C13.332 14.5259 14.5259 13.332 15.9987 13.332C17.4715 13.332 18.6654 14.5259 18.6654 15.9987C18.6654 17.4715 17.4715 18.6654 15.9987 18.6654V16.5326C16.2932 16.5326 16.5326 16.2932 16.5326 15.9987Z" fill="#33363D"/>
<path d="M25.8685 15.9987C25.8685 15.7041 25.6292 15.4648 25.3346 15.4648C25.0401 15.4648 24.8008 15.7041 24.8008 15.9987C24.8008 16.2932 25.0401 16.5326 25.3346 16.5326V18.6654C23.8619 18.6654 22.668 17.4715 22.668 15.9987C22.668 14.5259 23.8619 13.332 25.3346 13.332C26.8074 13.332 28.0013 14.5259 28.0013 15.9987C28.0013 17.4715 26.8074 18.6654 25.3346 18.6654V16.5326C25.6292 16.5326 25.8685 16.2932 25.8685 15.9987Z" fill="#33363D"/>
<path d="M16.5326 25.3346C16.5326 25.0401 16.2932 24.8008 15.9987 24.8008C15.7041 24.8008 15.4648 25.0401 15.4648 25.3346C15.4648 25.6292 15.7041 25.8685 15.9987 25.8685V28.0013C14.5259 28.0013 13.332 26.8074 13.332 25.3346C13.332 23.8619 14.5259 22.668 15.9987 22.668C17.4715 22.668 18.6654 23.8619 18.6654 25.3346C18.6654 26.8074 17.4715 28.0013 15.9987 28.0013V25.8685C16.2932 25.8685 16.5326 25.6292 16.5326 25.3346Z" fill="#33363D"/>
<path d="M25.8685 25.3346C25.8685 25.0401 25.6292 24.8008 25.3346 24.8008C25.0401 24.8008 24.8008 25.0401 24.8008 25.3346C24.8008 25.6292 25.0401 25.8685 25.3346 25.8685V28.0013C23.8619 28.0013 22.668 26.8074 22.668 25.3346C22.668 23.8619 23.8619 22.668 25.3346 22.668C26.8074 22.668 28.0013 23.8619 28.0013 25.3346C28.0013 26.8074 26.8074 28.0013 25.3346 28.0013V25.8685C25.6292 25.8685 25.8685 25.6292 25.8685 25.3346Z" fill="#33363D"/>
<path d="M14.5326 5.60156V7.73438H8.13281V5.60156H14.5326Z" fill="#33363D"/>
<path d="M23.8646 5.60156V7.73438H17.4648V5.60156H23.8646Z" fill="#33363D"/>
<path d="M14.5326 24.2656V26.3984H8.13281V24.2656H14.5326Z" fill="#33363D"/>
<path d="M13.913 16.5792L15.4211 18.0873L8.75422 24.7542L7.24609 23.2461L13.913 16.5792Z" fill="#33363D"/>
<path d="M23.245 7.24719L24.7531 8.75531L18.0863 15.4222L16.5781 13.9141L23.245 7.24719Z" fill="#33363D"/>
<path d="M23.8646 24.2656V26.3984H17.4648V24.2656H23.8646Z" fill="#33363D"/>
<path d="M7.20052 25.3346C7.20052 25.0401 6.96122 24.8008 6.66667 24.8008C6.37211 24.8008 6.13281 25.0401 6.13281 25.3346C6.13281 25.6292 6.37211 25.8685 6.66667 25.8685V28.0013C5.19391 28.0013 4 26.8074 4 25.3346C4 23.8619 5.19391 22.668 6.66667 22.668C8.13943 22.668 9.33333 23.8619 9.33333 25.3346C9.33333 26.8074 8.13943 28.0013 6.66667 28.0013V25.8685C6.96122 25.8685 7.20052 25.6292 7.20052 25.3346Z" fill="#33363D"/>
</svg>
