<svg width="40" height="41" viewBox="0 0 40 41" fill="none" xmlns="http://www.w3.org/2000/svg">
<path fill-rule="evenodd" clip-rule="evenodd" d="M6.33398 9.83297L33.666 9.83268C33.8501 9.83268 33.9994 9.98192 33.9994 10.166V30.833C33.9994 31.0171 33.8501 31.1663 33.666 31.1663H6.33398C6.14989 31.1663 6.00065 31.0171 6.00065 30.833V10.1663C6.00065 9.98221 6.14989 9.83297 6.33398 9.83297ZM33.666 7.16602L6.33395 7.16631C4.67711 7.16632 3.33398 8.50947 3.33398 10.1663V30.833C3.33398 32.4898 4.67713 33.833 6.33398 33.833H33.666C35.3229 33.833 36.666 32.4898 36.666 30.833V10.166C36.666 8.50915 35.3229 7.166 33.666 7.16602ZM25.334 22.4997C24.5976 22.4997 24.0007 23.0966 24.0007 23.833C24.0007 24.5694 24.5976 25.1663 25.334 25.1663H30.334C31.0704 25.1663 31.6673 24.5694 31.6673 23.833C31.6673 23.0966 31.0704 22.4997 30.334 22.4997H25.334ZM10.6673 22.8327C11.956 22.8327 13.0007 21.788 13.0007 20.4993C13.0007 19.2107 11.956 18.166 10.6673 18.166C9.37865 18.166 8.33398 19.2107 8.33398 20.4993C8.33398 21.788 9.37865 22.8327 10.6673 22.8327ZM21.334 20.4993C21.334 21.788 20.2893 22.8327 19.0007 22.8327C17.712 22.8327 16.6673 21.788 16.6673 20.4993C16.6673 19.2107 17.712 18.166 19.0007 18.166C20.2893 18.166 21.334 19.2107 21.334 20.4993Z" fill="#33363D"/>
</svg>
