<svg width="24" height="25" viewBox="0 0 24 25" fill="none" xmlns="http://www.w3.org/2000/svg">
<g id="icon/m_menu_03">
<path id="Vector" d="M9.16592 20.7504H14.833C14.833 21.4796 14.5344 22.179 14.003 22.6947C13.4717 23.2103 12.7509 23.5 11.9994 23.5C11.2479 23.5 10.5272 23.2103 9.99584 22.6947C9.46445 22.179 9.16592 21.4796 9.16592 20.7504ZM12.1128 2.50294C11.8243 2.48798 11.5357 2.53026 11.2647 2.62718C10.9936 2.7241 10.7458 2.87364 10.5363 3.06664C10.3268 3.25965 10.16 3.49207 10.0462 3.74972C9.93238 4.00737 9.87389 4.28484 9.8743 4.56516V5.59627C8.62962 6.0233 7.55225 6.81476 6.79092 7.86138C6.02959 8.90799 5.62186 10.1581 5.62402 11.4392V13.1578C5.62397 14.2508 5.17682 15.2991 4.38081 16.0724L4.08684 16.3577C3.79534 16.6415 3.6009 17.0055 3.52993 17.4002C3.45897 17.795 3.5149 18.2014 3.69014 18.5642C3.86258 18.9067 4.13213 19.1944 4.46714 19.3935C4.80216 19.5926 5.18874 19.6948 5.58152 19.6881H18.4953C19.027 19.6881 19.5369 19.4832 19.9128 19.1184C20.2888 18.7535 20.5 18.2587 20.5 17.7428V17.6569C20.5 17.193 20.3291 16.7444 20.0183 16.392L19.3985 15.7046C18.7348 14.9535 18.3715 13.9959 18.3749 13.0065V11.4392C18.377 10.1581 17.9693 8.90799 17.208 7.86138C16.4466 6.81476 15.3693 6.0233 14.1246 5.59627V4.68202C14.1366 4.13892 13.9355 3.61167 13.562 3.20707C13.1885 2.80247 12.6704 2.55077 12.1128 2.50294Z" fill="url(#paint0_linear_3526_4023)"/>
</g>
<defs>
<linearGradient id="paint0_linear_3526_4023" x1="9.51251" y1="9.93518" x2="20.8958" y2="19.1502" gradientUnits="userSpaceOnUse">
<stop stop-color="#FF939D"/>
<stop offset="1" stop-color="#FF669E"/>
</linearGradient>
</defs>
</svg>
