<svg width="20" height="20" viewBox="0 0 20 20" fill="none" xmlns="http://www.w3.org/2000/svg">
<g id="Group 1707484133">
<path id="Vector" d="M20 14.4727C20 12.2773 17.9853 10.5 15.5 10.5C13.0147 10.5 11 12.2794 11 14.4727C11 16.1723 12.2101 17.6176 13.9097 18.187L13.5084 18.8866C13.355 19.1534 13.6324 19.4622 13.9139 19.3382L15.979 18.4244C18.2374 18.2122 19.9979 16.5252 19.9979 14.4748L20 14.4727Z" fill="#6CA4EB"/>
<g id="Group">
<path id="Vector_2" d="M12.9979 6.23742C12.9979 3.06946 10.0879 0.5 6.49897 0.5C2.90999 0.5 0 3.06946 0 6.23742C0 9.1247 2.41673 11.5063 5.55993 11.9088L5.54961 11.9212L8.72583 13.3266C9.11176 13.4979 9.48944 13.0769 9.281 12.7116L8.66804 11.6446C11.19 10.8562 13 8.7367 13 6.23948L12.9979 6.23742Z" fill="url(#paint0_linear_3526_1863)"/>
<g id="Group_2">
<path id="Vector_3" d="M4.60487 6.40241C4.60487 6.90057 4.20062 7.30482 3.70246 7.30482C3.2043 7.30482 2.80005 6.90057 2.80005 6.40241C2.80005 5.90425 3.2043 5.5 3.70246 5.5C4.20062 5.5 4.60487 5.90425 4.60487 6.40241Z" fill="white"/>
<path id="Vector_4" d="M7.44276 6.40241C7.44276 6.90057 7.03851 7.30482 6.54035 7.30482C6.04219 7.30482 5.63794 6.90057 5.63794 6.40241C5.63794 5.90425 6.04219 5.5 6.54035 5.5C7.03851 5.5 7.44276 5.90425 7.44276 6.40241Z" fill="white"/>
<path id="Vector_5" d="M10.2826 6.40241C10.2826 6.90057 9.87836 7.30482 9.38019 7.30482C8.88203 7.30482 8.47778 6.90057 8.47778 6.40241C8.47778 5.90425 8.88203 5.5 9.38019 5.5C9.87836 5.5 10.2826 5.90425 10.2826 6.40241Z" fill="white"/>
</g>
</g>
</g>
<defs>
<linearGradient id="paint0_linear_3526_1863" x1="4.98495" y1="-0.15476" x2="14.4532" y2="10.3794" gradientUnits="userSpaceOnUse">
<stop stop-color="#BCD8FF"/>
<stop offset="1" stop-color="#6199DF"/>
</linearGradient>
</defs>
</svg>
