<?xml version="1.0" encoding="utf-8"?><!-- Uploaded to: SVG Repo, www.svgrepo.com, Generator: SVG Repo Mixer Tools -->
<svg width="700px" height="700px" viewBox="0 0 24 24" fill="none" xmlns="http://www.w3.org/2000/svg">
<g transform="translate(12,12) scale(0.84,0.90) translate(-12,-12)">
<path d="M10 6H14C16 6 16 5 16 4C16 2 15 2 14 2H10C9 2 8 2 8 4C8 6 9 6 10 6Z" stroke="#292D32" stroke-width="1.5" stroke-miterlimit="10" stroke-linecap="round" stroke-linejoin="round"/>
<path d="M13.5 22H9C4 22 3 20 3 16V10C3 5.944002 4.67 4.20002 7.8 4.02002" stroke="#292D32" stroke-width="1.7" stroke-miterlimit="10" stroke-linecap="round" stroke-linejoin="round"/>
<path d="M16.1 4.02002C19.33 4.20002 21 5.43002 21 10V14.5" stroke="#292D32" stroke-width="1.7" stroke-miterlimit="10" stroke-linecap="round" stroke-linejoin="round"/>
  <circle cx="17.75" cy="18.7" r="3.0"
          stroke="#292D32" stroke-width="1.6" stroke-linecap="round" stroke-linejoin="round"/>
  <path d="M20.7 21.0 L22.3 22.17"
        stroke="#292D32" stroke-width="1.6" stroke-linecap="round" stroke-linejoin="round"/>
</g>
</svg>