<svg width="20" height="20" viewBox="0 0 20 20" fill="none" xmlns="http://www.w3.org/2000/svg">
<path fill-rule="evenodd" clip-rule="evenodd" d="M3.83333 9.53071V16.3334H6.79167V13.0836C6.79167 12.1171 7.57517 11.3336 8.54167 11.3336H11.4583C12.4248 11.3336 13.2083 12.1171 13.2083 13.0836V16.3334H16.1667V9.53071L10 4.25478L3.83333 9.53071ZM9.45825 2.96355L2.79159 8.66725C2.60653 8.82558 2.5 9.05693 2.5 9.30047V16.8334C2.5 17.2936 2.8731 17.6667 3.33333 17.6667H7.29167C7.7519 17.6667 8.125 17.2936 8.125 16.8334V13.0836C8.125 12.8534 8.31155 12.6669 8.54167 12.6669H11.4583C11.6885 12.6669 11.875 12.8534 11.875 13.0836V16.8334C11.875 17.2936 12.2481 17.6667 12.7083 17.6667H16.6667C17.1269 17.6667 17.5 17.2936 17.5 16.8334V9.30047C17.5 9.05693 17.3935 8.82558 17.2084 8.66725L10.5417 2.96355C10.2299 2.69672 9.77013 2.69672 9.45825 2.96355Z" fill="#33363D"/>
</svg>
