<svg width="21" height="21" viewBox="0 0 21 21" fill="none" xmlns="http://www.w3.org/2000/svg">
<path fill-rule="evenodd" clip-rule="evenodd" d="M9.25 9.25C10.6307 9.25 11.75 8.13071 11.75 6.75C11.75 5.36929 10.6307 4.25 9.25 4.25C7.86929 4.25 6.75 5.36929 6.75 6.75C6.75 8.13071 7.86929 9.25 9.25 9.25ZM9.25 10.5C11.3211 10.5 13 8.82107 13 6.75C13 4.67893 11.3211 3 9.25 3C7.17893 3 5.5 4.67893 5.5 6.75C5.5 8.82107 7.17893 10.5 9.25 10.5Z" fill="#33363D"/>
<path fill-rule="evenodd" clip-rule="evenodd" d="M15.495 15.2915C15.2749 14.8442 15.002 14.4253 14.6842 14.0415H13C12.9707 14.0415 12.9418 14.0435 12.9136 14.0474C13.3608 14.404 13.746 14.8241 14.0537 15.2915H15.495ZM14.4977 16.1248C14.6634 16.5215 14.778 16.9406 14.8346 17.3748H3.66544C3.99751 14.8236 6.33598 12.7915 9.25 12.7915C10.2999 12.7915 11.2751 13.0553 12.1087 13.5121C12.3552 13.3215 12.6643 13.2081 13 13.2081H13.8596C12.6342 12.1693 11.0123 11.5415 9.25 11.5415C5.49368 11.5415 2.375 14.3936 2.375 17.9998C2.375 18.345 2.65482 18.6248 3 18.6248H15.5C15.8452 18.6248 16.125 18.345 16.125 17.9998C16.125 17.3459 16.0224 16.7167 15.8321 16.1248H14.4977Z" fill="#33363D"/>
<path fill-rule="evenodd" clip-rule="evenodd" d="M17.2173 16.0155C16.9732 16.2595 16.9732 16.6553 17.2173 16.8994C17.4614 17.1434 17.8571 17.1434 18.1012 16.8994L19.8689 15.1316C20.113 14.8875 20.113 14.4918 19.8689 14.2477L18.1012 12.4799C17.8571 12.2359 17.4614 12.2359 17.2173 12.4799C16.9732 12.724 16.9732 13.1197 17.2173 13.3638L17.8951 14.0416H13C12.6548 14.0416 12.375 14.3215 12.375 14.6666C12.375 15.0118 12.6548 15.2916 13 15.2916H17.9411L17.2173 16.0155Z" fill="#33363D"/>
</svg>
