<svg width="25" height="25" viewBox="0 0 25 25" fill="none" xmlns="http://www.w3.org/2000/svg">
<path fill-rule="evenodd" clip-rule="evenodd" d="M5.39883 5.30002C5.39882 5.18955 5.48836 5.1 5.59883 5.1H12.398C12.8398 5.1 13.198 4.74183 13.198 4.3C13.198 3.85817 12.8398 3.5 12.398 3.5H5.59883C4.60465 3.5 3.79873 4.30599 3.79883 5.30017L3.8002 19.7004C3.80029 20.6944 4.60615 21.5002 5.6002 21.5002H19.998C20.9921 21.5002 21.798 20.6943 21.798 19.7002V12.9002C21.798 12.4584 21.4398 12.1002 20.998 12.1002C20.5561 12.1002 20.198 12.4584 20.198 12.9002V19.7002C20.198 19.8107 20.1084 19.9002 19.998 19.9002H5.6002C5.48975 19.9002 5.40021 19.8107 5.4002 19.7002L5.39883 5.30002ZM14.798 4.3C14.798 4.74183 15.1562 5.1 15.598 5.1H19.0667L11.2324 12.9343C10.9199 13.2467 10.9199 13.7533 11.2324 14.0657C11.5448 14.3781 12.0513 14.3781 12.3637 14.0657L20.198 6.23137V9.7002C20.198 10.142 20.5562 10.5002 20.998 10.5002C21.4399 10.5002 21.798 10.142 21.798 9.7002V4.3C21.798 3.85817 21.4399 3.5 20.998 3.5H15.598C15.1562 3.5 14.798 3.85817 14.798 4.3Z" fill="#303336"/>
</svg>
