<?xml version="1.0" encoding="UTF-8"?>
<svg id="Layer_1" xmlns="http://www.w3.org/2000/svg" width="800" height="800" version="1.1" viewBox="0 0 800 800">
  <!-- Generator: Adobe Illustrator 29.1.0, SVG Export Plug-In . SVG Version: 2.1.0 Build 142)  -->
  <defs>
    <style>
      .st0 {
        fill: #292D32;
      }
    </style>
  </defs>
  <path class="st0" d="M400,400c82.8,0,150-67.2,150-150s-67.2-150-150-150-150,67.2-150,150,67.2,150,150,150ZM500,250c0,55.2-44.8,100-100,100s-100-44.8-100-100,44.8-100,100-100,100,44.8,100,100ZM700,650c0,50-50,50-50,50H150s-50,0-50-50,50-200,300-200,300,150,300,200ZM650,649.8c0-12.3-7.7-49.3-41.6-83.2s-94-66.6-208.4-66.6-175.8,34-208.4,66.6c-33.9,33.9-41.5,70.9-41.6,83.2h500Z"/>
</svg>