<svg xmlns="http://www.w3.org/2000/svg" width="20" height="20" viewBox="0 0 20 20" fill="none">
<path d="M4.73368 7.32836C5.0455 4.57571 7.30977 2.5 10.0007 2.5C12.6915 2.5 14.9558 4.57571 15.2676 7.32836L15.555 9.86542C15.6264 10.4958 15.8819 11.0891 16.2877 11.5667C17.1489 12.5803 16.45 14.1667 15.1422 14.1667H4.8591C3.55133 14.1667 2.85239 12.5803 3.71356 11.5667C4.11937 11.0891 4.37487 10.4958 4.44628 9.86541L4.73368 7.32836Z" fill="white"/>
<path d="M10 17.4998C11.1542 17.4998 12.1361 16.8042 12.5 15.8332C12.5 15.6031 12.3135 15.4165 12.0833 15.4165H7.91667C7.68655 15.4165 7.5 15.6031 7.5 15.8332C7.8639 16.8042 8.84581 17.4998 10 17.4998Z" fill="white"/>
</svg>